<?xml version="1.0" standalone="no"?>
<!DOCTYPE svg PUBLIC "-//W3C//DTD SVG 20010904//EN"
 "http://www.w3.org/TR/2001/REC-SVG-20010904/DTD/svg10.dtd">
<svg version="1.0" xmlns="http://www.w3.org/2000/svg"
 width="130.000000pt" height="130.000000pt" viewBox="0 0 130.000000 130.000000"
 preserveAspectRatio="xMidYMid meet">
<metadata>
Created by potrace 1.14, written by Peter Selinger 2001-2017
</metadata>
<g transform="translate(0.000000,130.000000) scale(0.100000,-0.100000)"
fill="#000000" stroke="none">
<path d="M319 1207 c-19 -12 -50 -29 -69 -37 -153 -60 -221 -176 -157 -270 31
-47 42 -47 57 1 8 23 33 62 57 88 l42 46 1 -95 c0 -52 -3 -152 -7 -222 l-6
-128 -34 0 c-30 0 -33 -3 -33 -29 0 -45 10 -61 36 -61 l24 0 0 -164 c0 -95 5
-176 11 -195 11 -30 15 -32 42 -27 57 12 102 39 99 61 -2 11 -6 88 -9 170 l-6
150 59 11 c33 6 60 10 62 9 2 -2 27 -70 56 -151 62 -176 73 -198 120 -243 45
-43 112 -53 165 -23 37 20 52 42 28 42 -24 0 -100 75 -136 134 -28 46 -97 210
-118 277 -3 10 16 37 52 72 82 83 110 149 110 262 0 70 -5 100 -21 136 -48
102 -149 166 -280 176 -50 4 -78 11 -81 20 -7 19 -25 16 -64 -10z m179 -143
c87 -36 126 -99 126 -204 0 -89 -21 -137 -83 -193 -35 -32 -118 -67 -158 -67
-10 0 -13 45 -13 224 0 123 3 231 6 240 8 21 72 21 122 0z"/>
<path d="M1032 808 c-44 -15 -117 -80 -147 -132 -34 -58 -58 -168 -52 -237 11
-126 74 -200 178 -207 32 -2 70 -2 83 2 59 15 136 112 136 171 0 34 -13 29
-42 -15 -48 -72 -124 -98 -187 -65 -28 14 -43 41 -56 99 -5 25 -4 28 12 21 86
-37 194 26 246 143 29 68 21 153 -20 194 -35 34 -95 45 -151 26z m92 -80 c5
-14 5 -47 1 -74 -9 -60 -59 -113 -130 -138 l-48 -16 6 40 c7 57 44 126 93 178
46 47 64 50 78 10z"/>
</g>
</svg>
