<svg fill="none" xmlns="http://www.w3.org/2000/svg" viewBox="0.87 8.3 94.47 28.72"><path d="M12.652 29.379a25.051 25.051 0 00-.703-1.934 49.356 49.356 0 00-.562-1.441c-.914.305-1.91.515-2.989.633 0 1.5.036 2.777.106 3.832.023.656.047 1.218.07 1.687.047.446.082.832.106 1.16.047.328.093.621.14.88.047.28.117.55.211.808-.469.352-.926.61-1.37.773a7.492 7.492 0 01-1.126.352c-.398.094-.75.117-1.055.07-.117-.328-.222-.68-.316-1.054-.094-.352-.164-.844-.21-1.477a63.718 63.718 0 01-.036-2.355c0-.961.035-2.192.105-3.692.024-.164.036-.328.036-.492 0-.164.011-.328.035-.492-.211-.024-.434-.047-.668-.07l-.633-.07a5.397 5.397 0 01-.281-.985 5.086 5.086 0 01-.07-.739c0-.234.023-.421.07-.562.375.07.75.105 1.125.105h.527c.047-.984.094-1.98.14-2.988.048-1.031.083-2.027.106-2.988.047-.985.082-1.91.106-2.777.023-.891.046-1.7.07-2.426a6.782 6.782 0 00-1.828 1.828c-.516.75-.867 1.617-1.055 2.601a1.274 1.274 0 01-.773-.421 5.034 5.034 0 01-.528-.774 5.789 5.789 0 01-.422-1.02 2.582 2.582 0 010-1.335 4.89 4.89 0 01.528-1.301c.234-.422.504-.785.808-1.09.305-.328.598-.586.88-.773a13.41 13.41 0 011.511-.809A9.47 9.47 0 016.5 9.41c.258-.258.54-.492.844-.703.328-.21.633-.34.914-.387.398-.093.62.153.668.739.21-.024.433-.036.668-.036.234-.023.48-.035.738-.035.89 0 1.816.14 2.777.422.961.281 1.84.738 2.637 1.371.82.61 1.488 1.418 2.004 2.426.516.984.773 2.191.773 3.621 0 1.617-.386 3.106-1.16 4.465-.75 1.36-1.828 2.484-3.234 3.375.164.422.375.95.633 1.582.258.633.515 1.348.773 2.145.375.984.774 1.91 1.195 2.777.446.844.903 1.582 1.372 2.215.468.633.96 1.136 1.476 1.511.516.399 1.031.633 1.547.704-.305.468-.656.796-1.055.984a3.86 3.86 0 01-1.195.352c-.445.07-.914.07-1.406 0a3.309 3.309 0 01-1.758-.985 7.97 7.97 0 01-1.3-1.863c-.352-.727-.68-1.5-.985-2.32-.281-.844-.54-1.641-.774-2.391zM8.574 14.402c0 .516-.011 1.137-.035 1.864a528.64 528.64 0 00-.07 2.355c0 .844-.012 1.735-.035 2.672-.024.914-.036 1.828-.036 2.742a16.83 16.83 0 002.075-.457 6.317 6.317 0 002.144-1.055c.656-.492 1.207-1.148 1.652-1.968.446-.82.668-1.875.668-3.164 0-.985-.175-1.817-.527-2.496-.328-.704-.762-1.266-1.3-1.688a4.906 4.906 0 00-1.794-.95 5.973 5.973 0 00-1.898-.316h-.352a2.36 2.36 0 00-.386.036c-.07.75-.106 1.558-.106 2.425zm16.594 18.985c-1.64 0-2.906-.551-3.797-1.653-.89-1.101-1.336-2.543-1.336-4.324 0-1.242.176-2.402.527-3.48.375-1.102.868-2.051 1.477-2.848.61-.797 1.313-1.418 2.11-1.863.82-.469 1.675-.703 2.566-.703.867 0 1.605.316 2.215.949.61.61.914 1.488.914 2.637 0 .75-.164 1.5-.492 2.25a7.372 7.372 0 01-1.301 1.968 6.833 6.833 0 01-1.723 1.371c-.633.352-1.242.528-1.828.528-.375 0-.691-.047-.95-.14a2.161 2.161 0 01-.702-.423c.07 1.336.363 2.274.879 2.813.515.515 1.183.773 2.003.773.563 0 1.055-.117 1.477-.351.445-.235.82-.504 1.125-.809.305-.305.55-.61.738-.914a8.1 8.1 0 00.387-.738c.07-.14.188-.211.352-.211.187 0 .28.14.28.422 0 .257-.093.656-.28 1.195-.165.516-.446 1.043-.844 1.582-.399.516-.914.973-1.547 1.371-.61.398-1.36.598-2.25.598zm1.617-13.36c-.14 0-.41.153-.808.457-.375.282-.786.703-1.23 1.266-.423.563-.821 1.242-1.196 2.04-.352.773-.574 1.651-.668 2.636 1.406-.328 2.52-.844 3.34-1.547.82-.703 1.23-1.735 1.23-3.094 0-.68-.082-1.137-.246-1.37-.164-.259-.305-.388-.422-.388zm10.899 6.293c.515.188 1.007.364 1.476.528.469.164.88.363 1.23.597.352.235.633.516.844.844.211.305.317.691.317 1.16a3.36 3.36 0 01-.387 1.582 3.7 3.7 0 01-1.055 1.301c-.468.375-1.043.668-1.722.879-.657.234-1.395.352-2.215.352-.914 0-1.652-.094-2.215-.282-.563-.164-.996-.363-1.3-.597-.305-.235-.505-.47-.598-.703-.094-.235-.141-.422-.141-.563 0-.281.059-.586.176-.914.117-.352.34-.727.668-1.125.14-.164.293-.317.457-.457.328-.281.656-.457.984-.527-.047.539.012.984.176 1.335.187.329.422.586.703.774.305.187.633.316.984.387.375.07.727.105 1.055.105.328 0 .656-.047.984-.14.352-.094.668-.212.95-.352a2.66 2.66 0 00.668-.527c.187-.211.28-.434.28-.668a.767.767 0 00-.316-.633 2.36 2.36 0 00-.808-.387 4.327 4.327 0 00-1.02-.246c-.351-.07-.691-.14-1.02-.211a255.7 255.7 0 00-1.335-.281 7.698 7.698 0 01-1.617-.633 4.825 4.825 0 01-1.371-1.125c-.375-.469-.563-1.09-.563-1.863 0-.89.223-1.664.668-2.32a6.417 6.417 0 011.688-1.688 7.932 7.932 0 012.144-1.055c.75-.234 1.418-.351 2.004-.351.305 0 .633.047.984.14.352.07.68.211.985.422.304.188.55.445.738.774.211.328.316.75.316 1.265 0 .516-.046.938-.14 1.266a1.67 1.67 0 01-.352.738.948.948 0 01-.527.317 3.43 3.43 0 01-.738.07c-.188 0-.364-.024-.528-.07-.14-.047-.293-.094-.457-.141a1.244 1.244 0 01-.457-.246c.235-.281.41-.551.528-.809.14-.258.21-.574.21-.949 0-.328-.093-.621-.28-.879-.165-.258-.446-.387-.844-.387-.422 0-.833.082-1.23.246a3.655 3.655 0 00-1.02.668c-.282.282-.516.61-.704.985a2.709 2.709 0 00-.246 1.16c0 .633.235 1.23.703 1.793.493.562 1.254 1.043 2.286 1.441zM48.3 33.387c-1.64 0-2.907-.551-3.797-1.653-.89-1.101-1.336-2.543-1.336-4.324 0-1.242.176-2.402.527-3.48.375-1.102.867-2.051 1.477-2.848.61-.797 1.312-1.418 2.11-1.863.82-.469 1.675-.703 2.566-.703.867 0 1.605.316 2.215.949.609.61.914 1.488.914 2.637 0 .75-.164 1.5-.493 2.25a7.37 7.37 0 01-1.3 1.968 6.831 6.831 0 01-1.723 1.371c-.633.352-1.242.528-1.828.528-.375 0-.692-.047-.95-.14a2.161 2.161 0 01-.703-.423c.07 1.336.364 2.274.88 2.813.515.515 1.183.773 2.003.773.563 0 1.055-.117 1.477-.351.445-.235.82-.504 1.125-.809.304-.305.55-.61.738-.914a8.1 8.1 0 00.387-.738c.07-.14.187-.211.351-.211.188 0 .282.14.282.422 0 .257-.094.656-.282 1.195-.164.516-.445 1.043-.843 1.582-.399.516-.914.973-1.547 1.371-.61.398-1.36.598-2.25.598zm1.617-13.36c-.14 0-.41.153-.809.457-.375.282-.785.703-1.23 1.266-.422.563-.82 1.242-1.195 2.04-.352.773-.575 1.651-.668 2.636 1.406-.328 2.52-.844 3.34-1.547.82-.703 1.23-1.735 1.23-3.094 0-.68-.082-1.137-.246-1.37-.164-.259-.305-.388-.422-.388zm14.871 2.18c0 .328-.094.668-.281 1.02a4.78 4.78 0 01-.633.949c-.258.305-.55.574-.879.808-.305.211-.598.34-.879.387.188-.726.246-1.289.176-1.687-.07-.399-.188-.692-.352-.88a1.022 1.022 0 00-.703-.35c-.422 0-.832.245-1.23.737-.375.47-.703 1.055-.985 1.758-.28.68-.504 1.418-.668 2.215a10.242 10.242 0 00-.246 2.11c-.023.445-.011.878.035 1.3.024.352.06.715.106 1.09.07.375.164.668.281.879-.14.117-.375.258-.703.422-.305.164-.633.27-.984.316a1.378 1.378 0 01-.914-.175c-.258-.165-.399-.516-.422-1.055a32.458 32.458 0 01-.106-1.723v-1.933l.07-1.934c.024-.633.06-1.219.106-1.758.047-1.031.07-1.828.07-2.39 0-.563-.011-1.102-.035-1.618 0-.093.153-.222.457-.386.328-.188.68-.352 1.055-.493.398-.14.762-.222 1.09-.246.328-.023.492.047.492.211 0 .258-.035.774-.105 1.547-.047.75-.118 1.535-.211 2.356.164-.446.375-.926.632-1.442.282-.515.598-.996.95-1.441.351-.445.75-.809 1.195-1.09a2.558 2.558 0 011.477-.457c.421 0 .761.129 1.02.387.28.257.503.55.667.879.164.328.281.656.352.984.07.328.105.562.105.703zm5.66 8.965c.211 0 .492-.375.844-1.125.351-.75.68-1.652.984-2.707.329-1.055.586-2.145.774-3.27.21-1.125.27-2.074.176-2.847a2 2 0 00-.211-.633 3.92 3.92 0 00-.282-.527 1.32 1.32 0 01.528-.422c.21-.118.41-.2.597-.246.235-.07.47-.118.704-.141.562-.024.972.07 1.23.281.14.14.21.469.21.985 0 .515-.058 1.125-.175 1.828-.094.68-.234 1.406-.422 2.18-.164.75-.351 1.44-.562 2.074-.211.609-.469 1.277-.774 2.003a41.121 41.121 0 01-.949 2.04 14.663 14.663 0 01-.984 1.652c-.328.445-.61.715-.844.809a4.122 4.122 0 01-1.477.28c-.468 0-.761-.058-.879-.175-.046-.047-.152-.211-.316-.492a14.762 14.762 0 01-.562-1.09c-.188-.445-.399-.961-.633-1.547a20.866 20.866 0 01-.563-1.934 15.101 15.101 0 01-.351-2.214c-.07-.797-.153-1.57-.246-2.32a18.065 18.065 0 00-.317-2.145c-.14-.657-.351-1.196-.633-1.617l1.653-.668c.14-.07.304-.13.492-.176a1.17 1.17 0 01.562-.07.763.763 0 01.493.28c.164.141.27.4.316.774.047.422.082.926.106 1.512.046.586.081 1.195.105 1.828l.14 1.898c.047.61.094 1.16.141 1.653.047.515.106 1.031.176 1.547.094.515.188.972.281 1.37.117.4.223.727.317.985.117.258.234.387.351.387zm7.63-10.617c0-.14.187-.293.562-.457a6.304 6.304 0 011.23-.387c.469-.117.89-.176 1.266-.176.398-.023.597.059.597.246 0 .352-.023.856-.07 1.512a91.353 91.353 0 01-.176 2.039c-.07.703-.14 1.418-.21 2.145-.071.703-.118 1.3-.141 1.793-.047.515-.094 1.078-.14 1.687-.048.516-.083 1.09-.106 1.723a26.636 26.636 0 000 1.933c0 .117-.118.235-.352.352-.234.117-.492.2-.773.246-.282.07-.551.105-.809.105s-.398-.047-.422-.14a2.18 2.18 0 01-.14-.492 12.24 12.24 0 01-.141-.985 24.83 24.83 0 01-.106-1.687 31.966 31.966 0 01.036-2.532c.093-1.945.105-3.445.035-4.5-.07-1.078-.117-1.886-.14-2.425zm2.46-6.996c.469 0 .914.14 1.336.421.422.282.633.657.633 1.125 0 .352-.094.692-.281 1.02a3.36 3.36 0 01-1.512 1.512c-.328.14-.633.21-.914.21-.375 0-.68-.058-.914-.175a2.271 2.271 0 01-.563-.457 1.897 1.897 0 01-.246-.598 2.759 2.759 0 01-.07-.598c0-.234.035-.492.105-.773.07-.305.2-.574.387-.809.188-.257.445-.468.773-.632.329-.164.75-.246 1.266-.246zm-.879 3.27c.14 0 .293-.048.457-.142.188-.117.352-.246.492-.386a1.75 1.75 0 00.387-.457c.117-.164.176-.305.176-.422 0-.188-.094-.281-.281-.281-.118 0-.27.046-.457.14a3.206 3.206 0 00-.493.352 1.802 1.802 0 00-.422.422.756.756 0 00-.14.422c0 .234.094.351.281.351zm14.66 14.378c.047.164.118.316.211.457.07.117.164.234.281.352.141.093.305.152.493.175-.164.328-.328.551-.493.668a.913.913 0 01-.246.141c-.21.07-.527.105-.949.105-.422 0-.832-.128-1.23-.386A1.62 1.62 0 0192 32.19a3.082 3.082 0 01-.316-.773c-.07-.352-.13-.797-.176-1.336-.328.703-.703 1.266-1.125 1.688-.399.398-.797.69-1.195.878-.446.258-.903.41-1.372.457a3.476 3.476 0 01-1.687-.28 3.817 3.817 0 01-1.336-1.126c-.352-.515-.621-1.137-.809-1.863-.187-.727-.246-1.547-.175-2.461.07-.96.257-1.816.562-2.566a9.594 9.594 0 011.09-2.004 8.251 8.251 0 011.336-1.477 9.208 9.208 0 011.336-1.02c.445-.28.82-.48 1.125-.597.328-.14.539-.223.633-.246.257-.07.48-.094.668-.07.187.023.351.128.492.316.047.07.105.152.176.246.046.094.105.223.175.387.07.14.13.304.176.492-.562.258-1.09.55-1.582.879-.492.305-.95.68-1.371 1.125-.398.445-.75.984-1.055 1.617-.304.633-.539 1.406-.703 2.32-.234 1.149-.176 2.075.176 2.778.375.703.879.996 1.512.879.375-.118.738-.34 1.09-.668.304-.282.62-.703.949-1.266.351-.563.68-1.336.984-2.32.117-1.407.211-2.508.281-3.305.094-.82.176-1.441.247-1.863.093-.492.163-.82.21-.985.07-.117.211-.222.422-.316.211-.117.446-.211.703-.281.258-.07.493-.106.703-.106.212-.023.352-.023.422 0 .047.024.07.317.07.88 0 .538-.023 1.23-.07 2.073-.023.82-.058 1.723-.105 2.707-.047.961-.094 1.875-.14 2.743-.024.867-.048 1.628-.071 2.285 0 .633.023 1.031.07 1.195z" fill="#0065FC"/></svg>